<svg width="231" height="75" viewBox="0 0 231 75" fill="none" xmlns="http://www.w3.org/2000/svg">
<g clip-path="url(#clip0_403_2)">
<path d="M52.2727 2.27274H8.63637C5.62391 2.27274 3.18182 4.71482 3.18182 7.72728V69.5455C3.18182 72.5579 5.62391 75 8.63637 75H52.2727C55.2852 75 57.7273 72.5579 57.7273 69.5455V7.72728C57.7273 4.71482 55.2852 2.27274 52.2727 2.27274Z" fill="url(#paint0_linear_403_2)" stroke="#E85D27" stroke-width="1.81818"/>
<path opacity="0.7" d="M45.4545 15H15.4545C14.7014 15 14.0909 15.6105 14.0909 16.3636C14.0909 17.1168 14.7014 17.7273 15.4545 17.7273H45.4545C46.2077 17.7273 46.8182 17.1168 46.8182 16.3636C46.8182 15.6105 46.2077 15 45.4545 15Z" fill="#E85D27"/>
<path opacity="0.5" d="M40 22.2727H15.4545C14.7014 22.2727 14.0909 22.8833 14.0909 23.6364C14.0909 24.3895 14.7014 25 15.4545 25H40C40.7531 25 41.3636 24.3895 41.3636 23.6364C41.3636 22.8833 40.7531 22.2727 40 22.2727Z" fill="#E85D27"/>
<path opacity="0.5" d="M42.7273 29.5455H15.4545C14.7014 29.5455 14.0909 30.156 14.0909 30.9091C14.0909 31.6622 14.7014 32.2727 15.4545 32.2727H42.7273C43.4804 32.2727 44.0909 31.6622 44.0909 30.9091C44.0909 30.156 43.4804 29.5455 42.7273 29.5455Z" fill="#E85D27"/>
<path opacity="0.2" d="M46.1364 35.9091H14.7727C14.3962 35.9091 14.0909 36.2143 14.0909 36.5909C14.0909 36.9675 14.3962 37.2727 14.7727 37.2727H46.1364C46.5129 37.2727 46.8182 36.9675 46.8182 36.5909C46.8182 36.2143 46.5129 35.9091 46.1364 35.9091Z" fill="#C94A1A"/>
<path opacity="0.4" d="M34.7727 40.4545H15.2273C14.5997 40.4545 14.0909 40.9633 14.0909 41.5909C14.0909 42.2185 14.5997 42.7273 15.2273 42.7273H34.7727C35.4003 42.7273 35.9091 42.2185 35.9091 41.5909C35.9091 40.9633 35.4003 40.4545 34.7727 40.4545Z" fill="#C94A1A"/>
<path opacity="0.35" d="M40.2273 46.8182H15.2273C14.5997 46.8182 14.0909 47.3269 14.0909 47.9545C14.0909 48.5821 14.5997 49.0909 15.2273 49.0909H40.2273C40.8549 49.0909 41.3636 48.5821 41.3636 47.9545C41.3636 47.3269 40.8549 46.8182 40.2273 46.8182Z" fill="#C94A1A"/>
<path opacity="0.3" d="M32.9545 53.1818H15.2273C14.5997 53.1818 14.0909 53.6906 14.0909 54.3182C14.0909 54.9458 14.5997 55.4546 15.2273 55.4546H32.9545C33.5821 55.4546 34.0909 54.9458 34.0909 54.3182C34.0909 53.6906 33.5821 53.1818 32.9545 53.1818Z" fill="#C94A1A"/>
<path opacity="0.25" d="M38.4091 59.5455H15.2273C14.5997 59.5455 14.0909 60.0542 14.0909 60.6818C14.0909 61.3094 14.5997 61.8182 15.2273 61.8182H38.4091C39.0367 61.8182 39.5455 61.3094 39.5455 60.6818C39.5455 60.0542 39.0367 59.5455 38.4091 59.5455Z" fill="#C94A1A"/>
<path d="M48.6364 18.6364C53.6572 18.6364 57.7273 14.5662 57.7273 9.54545C57.7273 4.52468 53.6572 0.454544 48.6364 0.454544C43.6156 0.454544 39.5455 4.52468 39.5455 9.54545C39.5455 14.5662 43.6156 18.6364 48.6364 18.6364Z" fill="url(#paint1_linear_403_2)"/>
<path d="M45 8.63636L48.6364 12.7273L54.0909 5.90909" stroke="white" stroke-width="1.81818" stroke-linecap="round" stroke-linejoin="round"/>
<path d="M80.375 42.3359V36.8047H88.6719C90.7031 36.8047 92.2812 36.2891 93.4062 35.2578C94.5469 34.2109 95.1172 32.7266 95.1172 30.8047V30.7578C95.1172 28.8359 94.5469 27.3594 93.4062 26.3281C92.2812 25.2969 90.7031 24.7812 88.6719 24.7812H80.375V19.1797H90.4062C92.7812 19.1797 94.8594 19.6641 96.6406 20.6328C98.4219 21.5859 99.8047 22.9297 100.789 24.6641C101.789 26.3984 102.289 28.4219 102.289 30.7344V30.7812C102.289 33.1094 101.789 35.1406 100.789 36.875C99.8047 38.6094 98.4219 39.9531 96.6406 40.9062C94.8594 41.8594 92.7812 42.3359 90.4062 42.3359H80.375ZM76.8125 53V19.1797H83.8906V53H76.8125ZM116.633 53.5156C114.086 53.5156 111.883 52.9922 110.023 51.9453C108.164 50.8984 106.727 49.3984 105.711 47.4453C104.695 45.4922 104.188 43.1562 104.188 40.4375V40.3906C104.188 37.6875 104.703 35.3672 105.734 33.4297C106.766 31.4766 108.211 29.9766 110.07 28.9297C111.93 27.8828 114.109 27.3594 116.609 27.3594C119.125 27.3594 121.312 27.8828 123.172 28.9297C125.047 29.9609 126.5 31.4531 127.531 33.4062C128.562 35.3438 129.078 37.6719 129.078 40.3906V40.4375C129.078 43.1719 128.562 45.5156 127.531 47.4688C126.516 49.4219 125.078 50.9219 123.219 51.9688C121.359 53 119.164 53.5156 116.633 53.5156ZM116.656 48.1484C117.766 48.1484 118.727 47.8516 119.539 47.2578C120.367 46.6484 121 45.7734 121.438 44.6328C121.891 43.4766 122.117 42.0781 122.117 40.4375V40.3906C122.117 38.7656 121.891 37.3828 121.438 36.2422C120.984 35.1016 120.344 34.2344 119.516 33.6406C118.688 33.0312 117.719 32.7266 116.609 32.7266C115.516 32.7266 114.555 33.0312 113.727 33.6406C112.914 34.2344 112.281 35.1016 111.828 36.2422C111.375 37.3828 111.148 38.7656 111.148 40.3906V40.4375C111.148 42.0781 111.367 43.4766 111.805 44.6328C112.258 45.7734 112.898 46.6484 113.727 47.2578C114.555 47.8516 115.531 48.1484 116.656 48.1484ZM141.172 53.5156C139.328 53.5156 137.758 53.1406 136.461 52.3906C135.18 51.625 134.195 50.5391 133.508 49.1328C132.836 47.7266 132.5 46.0469 132.5 44.0938V27.875H139.344V42.6641C139.344 44.3047 139.727 45.5781 140.492 46.4844C141.273 47.3906 142.43 47.8438 143.961 47.8438C144.727 47.8438 145.414 47.7109 146.023 47.4453C146.648 47.1797 147.18 46.8047 147.617 46.3203C148.055 45.8203 148.391 45.2344 148.625 44.5625C148.859 43.875 148.977 43.125 148.977 42.3125V27.875H155.82V53H148.977V48.8516H148.836C148.398 49.8047 147.82 50.6328 147.102 51.3359C146.398 52.0391 145.547 52.5781 144.547 52.9531C143.562 53.3281 142.438 53.5156 141.172 53.5156ZM160.273 53V27.875H167.117V32.2578H167.258C167.633 30.7109 168.312 29.5078 169.297 28.6484C170.281 27.7891 171.508 27.3594 172.977 27.3594C173.352 27.3594 173.711 27.3828 174.055 27.4297C174.398 27.4766 174.695 27.5391 174.945 27.6172V33.6406C174.664 33.5312 174.305 33.4453 173.867 33.3828C173.43 33.3047 172.961 33.2656 172.461 33.2656C171.336 33.2656 170.375 33.4844 169.578 33.9219C168.781 34.3594 168.172 35 167.75 35.8438C167.328 36.6875 167.117 37.7188 167.117 38.9375V53H160.273ZM177.898 53V27.875H184.742V53H177.898ZM181.32 24.6406C180.289 24.6406 179.422 24.2891 178.719 23.5859C178.016 22.8828 177.664 22.0469 177.664 21.0781C177.664 20.0938 178.016 19.2578 178.719 18.5703C179.422 17.8672 180.289 17.5156 181.32 17.5156C182.352 17.5156 183.219 17.8672 183.922 18.5703C184.625 19.2578 184.977 20.0938 184.977 21.0781C184.977 22.0469 184.625 22.8828 183.922 23.5859C183.219 24.2891 182.352 24.6406 181.32 24.6406ZM199.32 53.5156C196.539 53.5156 194.477 52.9297 193.133 51.7578C191.789 50.5859 191.117 48.6562 191.117 45.9688V33.0312H187.625V27.875H191.117V21.7344H198.031V27.875H202.625V33.0312H198.031V45.2188C198.031 46.3906 198.289 47.2109 198.805 47.6797C199.336 48.1328 200.117 48.3594 201.148 48.3594C201.461 48.3594 201.734 48.3516 201.969 48.3359C202.203 48.3047 202.422 48.2734 202.625 48.2422V53.2578C202.25 53.3203 201.781 53.375 201.219 53.4219C200.672 53.4844 200.039 53.5156 199.32 53.5156ZM210.336 61.2734C209.664 61.2734 209.016 61.2422 208.391 61.1797C207.766 61.1172 207.25 61.0469 206.844 60.9688V55.8828C207.094 55.9297 207.414 55.9766 207.805 56.0234C208.195 56.0859 208.641 56.1172 209.141 56.1172C210.172 56.1172 210.984 55.9453 211.578 55.6016C212.172 55.2578 212.617 54.6641 212.914 53.8203L213.219 53L204.336 27.875H211.859L217.531 48.875L216.617 47.5156H217.906L216.992 48.875L222.664 27.875H229.883L221.258 53.4453C220.602 55.4141 219.773 56.9688 218.773 58.1094C217.789 59.25 216.602 60.0625 215.211 60.5469C213.82 61.0312 212.195 61.2734 210.336 61.2734Z" fill="white"/>
</g>
<defs>
<linearGradient id="paint0_linear_403_2" x1="3.18182" y1="2.27274" x2="73" y2="54.6364" gradientUnits="userSpaceOnUse">
<stop stop-color="white" stop-opacity="0.95"/>
<stop offset="1" stop-color="#FFF0E8" stop-opacity="0.95"/>
</linearGradient>
<linearGradient id="paint1_linear_403_2" x1="39.5455" y1="0.454544" x2="57.7273" y2="18.6364" gradientUnits="userSpaceOnUse">
<stop stop-color="#E85D27"/>
<stop offset="1" stop-color="#D44D1A"/>
</linearGradient>
<clipPath id="clip0_403_2">
<rect width="231" height="75" fill="white"/>
</clipPath>
</defs>
</svg>
